<svg id="Слой_1" data-name="Слой 1" xmlns="http://www.w3.org/2000/svg" xmlns:xlink="http://www.w3.org/1999/xlink" viewBox="0 0 106.58 64.98"><defs><style>.cls-1{fill:url(#Безымянный_градиент_16);}</style><linearGradient id="Безымянный_градиент_16" x1="125.39" y1="56.67" x2="46.67" y2="135.39" gradientUnits="userSpaceOnUse"><stop offset="0" stop-color="#6ee7b7"/><stop offset="1" stop-color="#3e5ee5"/></linearGradient></defs><title>logo</title><path class="cls-1" d="M127.32,63.54H44.74a12,12,0,0,0-12,12v41a12,12,0,0,0,12,12h82.58a12,12,0,0,0,12-12v-41A12,12,0,0,0,127.32,63.54ZM76.82,114.4,65.17,117l2.59-11.65L91.7,81.39l9.06,9.06Zm28.78-29L103,88,94,79l2.59-2.59a6.37,6.37,0,0,1,3.88-1.29,6.47,6.47,0,0,1,5.18,10.35Z" transform="translate(-32.74 -63.54)"/></svg>